<?xml version="1.0" encoding="UTF-8" standalone="no"?>
<svg
   width="131.03839"
   height="80"
   version="1.1"
   viewBox="0 0 131.03839 79.999998"
   xml:space="preserve"
   id="svg66"
   xmlns="http://www.w3.org/2000/svg"
   xmlns:svg="http://www.w3.org/2000/svg"><defs
   id="defs70" />
<style
   type="text/css"
   id="style2">
	.st0{fill:#2A2E46;}
	.st1{fill:#E84E0F;}
</style>
<g
   transform="scale(0.88779394)"
   id="g64"><path
     class="st0"
     d="M 20.5,44.9 C 9.2,44.9 0,35.7 0,24.3 V 0 h 9.1 v 24.3 c 0,6.3 5.1,11.4 11.4,11.4 6.3,0 11.4,-5.1 11.4,-11.4 V 0 H 41 v 24.3 c 0,11.4 -9.2,20.6 -20.5,20.6 z"
     id="path4" /><g
     transform="translate(-1.2,-1.7)"
     id="g8">
		<polygon
   class="st0"
   points="138.2,45.9 148.8,45.9 123.2,1.7 97.7,45.9 108.3,45.9 123.2,20 "
   id="polygon6" />
	</g><path
     class="st0"
     d="m 72.3,45.711 c -4.3,0 -8.6,-1.2 -12.4,-3.7 -10.6,-6.9 -13.6,-21.1 -6.7,-31.6 6.9,-10.6 21,-13.6 31.6,-6.7 l -5,7.7 c -6.3,-4.1 -14.8,-2.3 -18.9,4 -4.1,6.3 -2.3,14.8 4,18.9 6.3,4.1 14.8,2.3 18.9,-4 l 7.7,5 c -4.5,6.7 -11.8,10.4 -19.2,10.4 z"
     id="path10" /><rect
     class="st0"
     x="72"
     y="18.311001"
     width="20.299999"
     height="9.1000004"
     id="rect12" /><g
     transform="translate(-1.2,-0.8894)"
     id="g16">
		<polygon
   class="st1"
   points="123.2,39.7 112.4,58.5 134.1,58.5 "
   id="polygon14" />
	</g><path
     class="st0"
     d="m 1.5,66.511 c -1,-1 -1.5,-2.2 -1.5,-3.7 v -8.1 h 2.8 v 8 c 0,0.8 0.2,1.4 0.7,1.9 0.5,0.5 1.1,0.7 1.8,0.7 0.7,0 1.4,-0.2 1.9,-0.7 0.5,-0.5 0.7,-1.1 0.7,-1.9 v -8 h 2.8 v 8.1 c 0,1.5 -0.5,2.8 -1.5,3.7 -1,1 -2.3,1.5 -3.9,1.5 -1.5,-0.1 -2.8,-0.5 -3.8,-1.5 z"
     id="path18" /><path
     class="st0"
     d="m 22,58.511 c 0.7,0.8 1,1.8 1,3.1 v 6.1 h -2.7 v -5.7 c 0,-1.5 -0.6,-2.3 -1.7,-2.3 -0.5,0 -0.9,0.1 -1.2,0.3 -0.3,0.2 -0.6,0.5 -0.8,0.9 -0.2,0.4 -0.3,0.9 -0.3,1.4 v 5.3 h -2.7 v -10 h 1.9 l 0.5,1.2 0.6,-0.6 c 0.2,-0.2 0.5,-0.3 0.8,-0.5 0.3,-0.1 0.6,-0.2 0.9,-0.3 0.3,-0.1 0.6,-0.1 1,-0.1 1.1,0.1 2,0.5 2.7,1.2 z"
     id="path20" /><path
     class="st0"
     d="m 25.9,53.711 h 2.7 v 2.5 h -2.7 z m 0,3.9 h 2.7 v 10 h -2.7 z"
     id="path22" /><path
     class="st0"
     d="m 41,57.611 -4,10 h -2.5 l -4.1,-10 h 2.9 l 2.5,6.7 2.4,-6.7 z"
     id="path24" /><path
     class="st0"
     d="m 52.1,63.411 h -7.6 c 0.1,0.7 0.4,1.2 0.8,1.6 0.4,0.4 1,0.5 1.6,0.5 0.5,0 0.9,-0.1 1.2,-0.3 0.4,-0.2 0.7,-0.5 0.9,-0.8 h 2.9 c -0.4,1.1 -1,2 -1.9,2.6 -0.9,0.6 -1.9,1 -3.1,1 -1.5,0 -2.7,-0.5 -3.7,-1.5 -1,-1 -1.5,-2.3 -1.5,-3.8 0,-0.6 0.1,-1.2 0.3,-1.7 0.2,-0.5 0.4,-1 0.7,-1.5 0.3,-0.4 0.7,-0.8 1.1,-1.1 0.4,-0.3 0.9,-0.6 1.4,-0.7 0.5,-0.2 1.1,-0.3 1.7,-0.3 1,0 1.9,0.2 2.7,0.7 0.8,0.5 1.4,1.1 1.8,1.9 0.4,0.8 0.6,1.7 0.6,2.6 0.2,0.3 0.1,0.5 0.1,0.8 z m -6.7,-3.3 c -0.4,0.3 -0.7,0.8 -0.8,1.4 h 4.9 c -0.1,-0.4 -0.3,-0.8 -0.5,-1 -0.2,-0.3 -0.5,-0.5 -0.8,-0.6 -0.3,-0.1 -0.7,-0.2 -1.1,-0.2 -0.7,-0.1 -1.3,0.1 -1.7,0.4 z"
     id="path26" /><path
     class="st0"
     d="m 60.5,57.611 v 2.5 h -1.2 c -0.8,0 -1.3,0.2 -1.6,0.5 -0.3,0.4 -0.5,0.9 -0.5,1.8 v 5.2 h -2.7 v -10 h 1.7 l 0.5,1.2 c 0.7,-0.9 1.6,-1.3 2.9,-1.3 h 0.9 z"
     id="path28" /><path
     class="st0"
     d="m 63.7,67.511 c -0.6,-0.3 -1.1,-0.7 -1.5,-1.3 -0.4,-0.5 -0.5,-1.2 -0.5,-1.9 h 2.6 c 0,0.3 0.1,0.5 0.2,0.8 0.1,0.2 0.3,0.4 0.6,0.4 0.2,0.1 0.5,0.1 0.9,0.1 0.3,0 0.5,0 0.7,-0.1 0.2,-0.1 0.4,-0.2 0.5,-0.3 0.1,-0.2 0.2,-0.3 0.2,-0.5 0,-0.3 -0.2,-0.5 -0.5,-0.7 -0.3,-0.1 -0.8,-0.3 -1.5,-0.4 -0.4,-0.1 -0.7,-0.1 -1,-0.2 -0.3,-0.1 -0.6,-0.2 -0.9,-0.3 -0.4,-0.2 -0.7,-0.3 -0.9,-0.5 -0.2,-0.2 -0.4,-0.5 -0.6,-0.8 -0.2,-0.3 -0.2,-0.8 -0.2,-1.2 0,-0.9 0.4,-1.7 1.1,-2.3 0.7,-0.6 1.7,-0.9 2.9,-0.9 1.2,0 2.2,0.3 2.9,0.9 0.7,0.6 1.1,1.4 1.1,2.4 h -2.6 c 0,-0.8 -0.5,-1.2 -1.5,-1.2 -0.4,0 -0.8,0.1 -1,0.3 -0.2,0.2 -0.4,0.4 -0.4,0.7 0,0.1 0,0.2 0.1,0.3 0.1,0.1 0.1,0.2 0.2,0.3 0.1,0.1 0.2,0.1 0.4,0.2 0.2,0.1 0.4,0.1 0.5,0.1 l 0.6,0.1 c 0.2,0 0.4,0.1 0.5,0.1 0.1,0 0.3,0.1 0.5,0.1 0.2,0 0.4,0.1 0.5,0.1 0.1,0 0.3,0.1 0.5,0.2 0.2,0.1 0.4,0.2 0.5,0.2 0.1,0.1 0.2,0.2 0.4,0.3 0.2,0.1 0.3,0.2 0.4,0.4 0.1,0.1 0.2,0.3 0.3,0.4 0.1,0.2 0.1,0.3 0.2,0.6 v 0.7 c 0,1 -0.4,1.9 -1.2,2.5 -0.8,0.6 -1.8,0.9 -3.1,0.9 -0.5,-0.1 -1.3,-0.2 -1.9,-0.5 z"
     id="path30" /><path
     class="st0"
     d="m 72.5,53.711 h 2.7 v 2.5 h -2.7 z m 0,3.9 h 2.7 v 10 h -2.7 z"
     id="path32" /><path
     class="st0"
     d="m 84.3,65.211 v 2.4 h -1.9 c -0.7,0 -1.4,-0.1 -1.9,-0.4 -0.5,-0.3 -1,-0.7 -1.2,-1.2 -0.3,-0.5 -0.4,-1.2 -0.4,-1.9 v -4.3 h -1.8 v -0.6 l 4,-4.2 h 0.5 v 2.6 h 2.6 v 2.2 h -2.7 v 3.9 c 0,0.5 0.1,0.9 0.4,1.1 0.3,0.2 0.6,0.4 1.1,0.4 z"
     id="path34" /><path
     class="st0"
     d="m 96.1,63.411 h -7.6 c 0.1,0.7 0.4,1.2 0.8,1.6 0.4,0.4 1,0.5 1.6,0.5 0.5,0 0.9,-0.1 1.2,-0.3 0.4,-0.2 0.7,-0.5 0.9,-0.8 h 2.9 c -0.4,1.1 -1,2 -1.9,2.6 -0.9,0.6 -1.9,1 -3.1,1 -1.5,0 -2.7,-0.5 -3.7,-1.5 -1,-1 -1.5,-2.3 -1.5,-3.8 0,-0.6 0.1,-1.2 0.3,-1.7 0.2,-0.5 0.4,-1 0.7,-1.5 0.3,-0.4 0.7,-0.8 1.1,-1.1 0.4,-0.3 0.9,-0.6 1.4,-0.7 0.5,-0.2 1.1,-0.3 1.7,-0.3 1,0 1.9,0.2 2.7,0.7 0.8,0.5 1.4,1.1 1.8,1.9 0.4,0.8 0.6,1.7 0.6,2.6 0.2,0.3 0.2,0.5 0.1,0.8 z m -6.6,-3.3 c -0.4,0.3 -0.7,0.8 -0.8,1.4 h 4.9 c -0.1,-0.4 -0.3,-0.8 -0.5,-1 -0.2,-0.3 -0.5,-0.5 -0.8,-0.6 -0.3,-0.1 -0.7,-0.2 -1.1,-0.2 -0.8,-0.1 -1.3,0.1 -1.7,0.4 z m 2.3,-3.6 h -2 l 1,-2.8 h 2.9 z"
     id="path36" /><path
     class="st0"
     d="m 13.4,79.711 c 0,2.1 -0.6,3.8 -1.9,5.1 -1.2,1.3 -2.8,2 -4.8,2 -1.9,0 -3.5,-0.6 -4.8,-1.9 -1.3,-1.3 -1.9,-2.9 -1.9,-4.8 0,-2 0.6,-3.6 1.9,-4.9 1.3,-1.3 2.9,-1.9 4.8,-1.9 1.6,0 3,0.5 4.3,1.4 1.2,0.9 2,2.1 2.3,3.6 h -2.9 c -0.2,-0.5 -0.5,-0.9 -0.8,-1.2 -0.3,-0.3 -0.8,-0.6 -1.2,-0.8 -0.5,-0.2 -1,-0.3 -1.5,-0.3 -1.2,0 -2.1,0.4 -2.8,1.2 -0.7,0.8 -1.1,1.8 -1.1,3 0,0.8 0.2,1.5 0.5,2.1 0.3,0.6 0.8,1.1 1.4,1.5 0.6,0.3 1.3,0.5 2,0.5 0.6,0 1.1,-0.1 1.6,-0.3 0.5,-0.2 0.9,-0.4 1.3,-0.8 0.4,-0.3 0.6,-0.7 0.8,-1.2 H 6.4 v -2.2 h 7 z"
     id="path38" /><path
     class="st0"
     d="m 21.7,76.411 v 2.6 h -1.2 c -0.8,0 -1.3,0.2 -1.6,0.5 -0.3,0.4 -0.5,0.9 -0.5,1.8 v 5.2 h -2.7 v -10 h 1.7 l 0.5,1.2 c 0.7,-0.9 1.6,-1.3 2.9,-1.3 z"
     id="path40" /><path
     class="st0"
     d="m 33.1,82.211 h -7.6 c 0.1,0.7 0.4,1.2 0.8,1.6 0.4,0.4 1,0.5 1.6,0.5 0.5,0 0.9,-0.1 1.2,-0.3 0.4,-0.2 0.7,-0.5 0.9,-0.8 h 2.9 c -0.4,1.1 -1,2 -1.9,2.6 -0.9,0.6 -1.9,1 -3.1,1 -1.5,0 -2.7,-0.5 -3.7,-1.5 -1,-1 -1.5,-2.3 -1.5,-3.8 0,-0.6 0.1,-1.2 0.3,-1.7 0.2,-0.5 0.4,-1 0.7,-1.5 0.3,-0.4 0.7,-0.8 1.1,-1.1 0.4,-0.3 0.9,-0.6 1.4,-0.7 0.5,-0.2 1.1,-0.3 1.7,-0.3 1,0 1.9,0.2 2.7,0.7 0.8,0.5 1.4,1.1 1.8,1.9 0.4,0.8 0.6,1.7 0.6,2.6 0.1,0.3 0.1,0.5 0.1,0.8 z m -6.7,-3.2 c -0.4,0.3 -0.7,0.8 -0.8,1.4 h 4.9 c -0.1,-0.4 -0.3,-0.8 -0.5,-1 -0.2,-0.3 -0.5,-0.5 -0.8,-0.6 -0.3,-0.1 -0.7,-0.2 -1.1,-0.2 -0.8,-0.1 -1.3,0 -1.7,0.4 z"
     id="path42" /><path
     class="st0"
     d="m 43.9,77.311 c 0.7,0.8 1,1.8 1,3.1 v 6.1 h -2.7 v -5.7 c 0,-1.5 -0.6,-2.3 -1.7,-2.3 -0.5,0 -0.9,0.1 -1.2,0.3 -0.3,0.2 -0.6,0.5 -0.8,0.9 -0.2,0.4 -0.3,0.9 -0.3,1.4 v 5.3 h -2.7 v -10 h 1.9 l 0.5,1.2 0.6,-0.6 c 0.2,-0.2 0.5,-0.3 0.8,-0.5 0.3,-0.1 0.6,-0.2 0.9,-0.3 0.3,-0.1 0.6,-0.1 1,-0.1 1.1,0.1 2,0.5 2.7,1.2 z"
     id="path44" /><path
     class="st0"
     d="m 49.7,86.111 c -0.8,-0.5 -1.5,-1.1 -1.9,-1.9 -0.5,-0.8 -0.7,-1.7 -0.7,-2.7 0,-1.5 0.5,-2.8 1.5,-3.8 1,-1 2.3,-1.5 3.9,-1.5 1.6,0 2.8,0.5 3.9,1.5 1,1 1.5,2.3 1.5,3.8 0,1.5 -0.5,2.8 -1.6,3.8 -1,1 -2.3,1.5 -3.9,1.5 -0.9,0 -1.9,-0.3 -2.7,-0.7 z m 4.7,-2.7 c 0.5,-0.5 0.7,-1.2 0.7,-2 0,-0.8 -0.2,-1.5 -0.7,-2 -0.5,-0.5 -1.1,-0.8 -1.9,-0.8 -0.8,0 -1.4,0.3 -1.9,0.8 -0.5,0.5 -0.7,1.2 -0.7,2 0,0.4 0.1,0.8 0.2,1.1 0.1,0.3 0.3,0.6 0.5,0.9 0.2,0.2 0.5,0.4 0.8,0.6 0.3,0.2 0.7,0.2 1.1,0.2 0.8,0 1.4,-0.3 1.9,-0.8 z"
     id="path46" /><path
     class="st0"
     d="m 69.5,77.711 c 1,1 1.5,2.3 1.5,3.8 0,1.5 -0.5,2.8 -1.5,3.8 -1,1 -2.3,1.5 -3.8,1.5 -1.2,0 -2.3,-0.4 -3.1,-1.1 l -0.3,0.8 h -2 v -13.7 H 63 v 4.2 c 0.8,-0.5 1.7,-0.8 2.8,-0.8 1.4,-0.1 2.7,0.5 3.7,1.5 z m -2.1,5.7 c 0.5,-0.5 0.8,-1.2 0.8,-2 0,-0.5 -0.1,-1 -0.3,-1.4 -0.2,-0.4 -0.6,-0.8 -1,-1 -0.4,-0.2 -0.9,-0.4 -1.4,-0.4 -0.5,0 -1,0.1 -1.4,0.4 -0.4,0.2 -0.8,0.6 -1,1 -0.2,0.4 -0.4,0.9 -0.4,1.4 0,0.8 0.3,1.4 0.8,2 0.5,0.5 1.2,0.8 2,0.8 0.8,0 1.4,-0.3 1.9,-0.8 z"
     id="path48" /><path
     class="st0"
     d="M 73.3,72.811 H 76 v 13.7 h -2.7 z"
     id="path50" /><path
     class="st0"
     d="m 88.7,82.211 h -7.6 c 0.1,0.7 0.4,1.2 0.8,1.6 0.4,0.4 1,0.5 1.6,0.5 0.5,0 0.9,-0.1 1.2,-0.3 0.4,-0.2 0.7,-0.5 0.9,-0.8 h 2.9 c -0.4,1.1 -1,2 -1.9,2.6 -0.9,0.6 -1.9,1 -3.1,1 -1.5,0 -2.7,-0.5 -3.7,-1.5 -1,-1 -1.5,-2.3 -1.5,-3.8 0,-0.6 0.1,-1.2 0.3,-1.7 0.2,-0.5 0.4,-1 0.7,-1.5 0.3,-0.5 0.7,-0.8 1.1,-1.1 0.4,-0.3 0.9,-0.6 1.4,-0.7 0.5,-0.1 1.1,-0.3 1.7,-0.3 1,0 1.9,0.2 2.7,0.7 0.8,0.5 1.4,1.1 1.8,1.9 0.4,0.8 0.6,1.7 0.6,2.6 0.1,0.3 0.1,0.5 0.1,0.8 z m -6.7,-3.2 c -0.4,0.3 -0.7,0.8 -0.8,1.4 h 4.9 c -0.1,-0.4 -0.3,-0.8 -0.5,-1 -0.2,-0.3 -0.5,-0.5 -0.8,-0.6 -0.3,-0.1 -0.7,-0.2 -1.1,-0.2 -0.8,-0.1 -1.3,0 -1.7,0.4 z"
     id="path52" /><path
     class="st0"
     d="m 103.3,84.011 h -5.2 l -0.9,2.5 h -3 l 5.1,-13 h 2.7 l 5.3,13 h -3.1 z m -4.3,-2.5 h 3.4 l -1.7,-4.7 z"
     id="path54" /><path
     class="st0"
     d="m 109.1,72.811 h 2.7 v 13.7 h -2.7 z"
     id="path56" /><path
     class="st0"
     d="m 124.1,77.711 c 1,1 1.5,2.3 1.5,3.8 0,1.5 -0.5,2.8 -1.5,3.8 -1,1 -2.3,1.5 -3.8,1.5 -1,0 -2,-0.3 -2.8,-0.8 v 4.1 h -2.7 v -13.7 h 1.8 l 0.5,0.9 c 0.9,-0.8 2,-1.2 3.2,-1.2 1.5,0 2.8,0.6 3.8,1.6 z m -2.1,5.7 c 0.5,-0.5 0.8,-1.2 0.8,-2 0,-0.5 -0.1,-1 -0.4,-1.4 -0.2,-0.4 -0.6,-0.8 -1,-1 -0.4,-0.2 -0.9,-0.4 -1.4,-0.4 -0.5,0 -1,0.1 -1.4,0.4 -0.4,0.2 -0.7,0.6 -1,1 -0.2,0.4 -0.3,0.9 -0.3,1.4 0,0.8 0.3,1.5 0.8,2 0.5,0.5 1.2,0.8 2,0.8 0.7,0 1.4,-0.3 1.9,-0.8 z"
     id="path58" /><path
     class="st0"
     d="M 137.6,82.211 H 130 c 0.1,0.7 0.4,1.2 0.8,1.6 0.4,0.4 1,0.5 1.6,0.5 0.5,0 0.9,-0.1 1.2,-0.3 0.4,-0.2 0.7,-0.5 0.9,-0.8 h 2.9 c -0.4,1.1 -1,2 -1.9,2.6 -0.9,0.6 -1.9,1 -3.1,1 -1.5,0 -2.7,-0.5 -3.7,-1.5 -1,-1 -1.5,-2.3 -1.5,-3.8 0,-0.6 0.1,-1.2 0.3,-1.7 0.2,-0.5 0.4,-1 0.7,-1.5 0.3,-0.4 0.7,-0.8 1.1,-1.1 0.4,-0.3 0.9,-0.6 1.4,-0.7 0.5,-0.2 1.1,-0.3 1.7,-0.3 1,0 1.9,0.2 2.7,0.7 0.8,0.5 1.4,1.1 1.8,1.9 0.4,0.8 0.6,1.7 0.6,2.6 0.1,0.3 0.1,0.5 0.1,0.8 z m -6.7,-3.2 c -0.4,0.3 -0.7,0.8 -0.8,1.4 h 4.9 c -0.1,-0.4 -0.3,-0.8 -0.5,-1 -0.2,-0.3 -0.5,-0.5 -0.8,-0.6 -0.3,-0.1 -0.7,-0.2 -1.1,-0.2 -0.8,-0.1 -1.3,0 -1.7,0.4 z"
     id="path60" /><path
     class="st0"
     d="m 141.3,86.311 c -0.6,-0.3 -1.1,-0.7 -1.5,-1.3 -0.4,-0.5 -0.5,-1.2 -0.5,-1.9 h 2.6 c 0,0.3 0.1,0.5 0.2,0.8 0.1,0.2 0.3,0.4 0.6,0.4 0.2,0.1 0.5,0.1 0.9,0.1 0.3,0 0.5,0 0.7,-0.1 0.2,-0.1 0.4,-0.2 0.5,-0.3 0.1,-0.2 0.2,-0.3 0.2,-0.5 0,-0.3 -0.2,-0.5 -0.5,-0.7 -0.3,-0.1 -0.8,-0.3 -1.5,-0.4 -0.4,-0.1 -0.7,-0.1 -1,-0.2 -0.3,-0.1 -0.6,-0.2 -0.9,-0.3 -0.4,-0.2 -0.7,-0.3 -0.9,-0.5 -0.2,-0.2 -0.4,-0.5 -0.6,-0.8 -0.2,-0.3 -0.2,-0.8 -0.2,-1.2 0,-0.9 0.4,-1.7 1.1,-2.3 0.7,-0.6 1.7,-0.9 2.9,-0.9 1.2,0 2.2,0.3 2.9,0.9 0.7,0.6 1.1,1.4 1.1,2.4 h -2.6 c 0,-0.8 -0.5,-1.2 -1.5,-1.2 -0.4,0 -0.8,0.1 -1,0.3 -0.2,0.2 -0.4,0.4 -0.4,0.7 0,0.1 0,0.2 0.1,0.3 0.1,0.1 0.1,0.2 0.2,0.3 0.1,0.1 0.2,0.1 0.4,0.2 0.2,0.1 0.4,0.1 0.5,0.1 l 0.6,0.1 c 0.2,0 0.4,0.1 0.5,0.1 0.1,0 0.3,0.1 0.5,0.1 0.2,0 0.4,0.1 0.5,0.1 0.1,0 0.3,0.1 0.5,0.2 0.2,0.1 0.4,0.2 0.5,0.2 0.1,0.1 0.2,0.2 0.4,0.3 0.2,0.1 0.3,0.2 0.4,0.4 0.1,0.1 0.2,0.3 0.3,0.4 0.1,0.2 0.1,0.3 0.2,0.6 v 0.7 c 0,1 -0.4,1.9 -1.2,2.5 -0.8,0.6 -1.8,0.9 -3.1,0.9 -0.5,0 -1.3,-0.2 -1.9,-0.5 z"
     id="path62" /></g>
</svg>
