<?xml version="1.0" encoding="UTF-8" standalone="no"?>
<svg
   width="121.62667"
   height="80"
   version="1.1"
   viewBox="0 0 121.62667 79.999997"
   id="svg62"
   xmlns="http://www.w3.org/2000/svg"
   xmlns:svg="http://www.w3.org/2000/svg">
  <defs
     id="defs66" />
  <g
     transform="matrix(0.41682519,0,0,-0.41682519,0,80)"
     id="g60">
    <g
       transform="scale(0.1)"
       id="g58">
      <path
         d="m 1805.6,1191.2 c -38.74,15.11 -88.3,29.63 -148.72,43.57 -44.15,10.84 -79,20.52 -104.56,29.05 -25.57,8.52 -46.68,20.13 -63.33,34.86 -16.66,14.71 -24.98,33.69 -24.98,56.93 0,33.3 14.52,60.02 43.57,80.17 29.05,20.13 73.38,30.21 133.04,30.21 36.4,0 73.96,-5.43 112.7,-16.27 38.73,-10.85 75.9,-26.72 111.54,-47.63 l 47.65,117.35 c -34.87,23.24 -76.31,41.04 -124.33,53.45 -48.04,12.38 -96.84,18.59 -146.41,18.59 -71.27,0 -131.49,-10.86 -180.67,-32.54 -49.19,-21.69 -85.98,-50.94 -110.38,-87.72 -24.4,-36.8 -36.59,-77.67 -36.59,-122.58 0,-53.45 13.74,-95.86 41.24,-127.23 27.49,-31.37 60.42,-54.43 98.76,-69.13 38.35,-14.73 88.49,-29.45 150.47,-44.15 44.15,-10.86 79.01,-20.54 104.57,-29.05 25.56,-8.54 46.66,-20.33 63.32,-35.44 16.66,-15.1 24.99,-34.27 24.99,-57.515 0,-31.766 -14.94,-57.325 -44.74,-76.684 -29.82,-19.371 -74.94,-29.051 -135.36,-29.051 -48.8,0 -97.42,8.32 -145.82,24.988 -48.41,16.645 -89.28,38.137 -122.58,64.481 l -52.28,-117.35 c 34.07,-29.441 80.35,-53.062 138.84,-70.883 58.48,-17.808 119.09,-26.718 181.84,-26.718 71.26,0 131.68,10.859 181.25,32.531 49.57,21.68 86.57,50.73 110.97,87.141 24.4,36.41 36.6,77.07 36.6,122 0,52.665 -13.76,94.495 -41.25,125.48 -27.5,30.97 -60.62,54.03 -99.35,69.13"
         fill="#0f315a"
         id="path2" />
      <path
         d="m 2393.5,887.39 c -55.77,0 -105.73,12.199 -149.88,36.597 -44.15,24.395 -78.62,58.27 -103.41,101.66 -24.79,43.37 -37.19,92.55 -37.19,147.56 0,54.99 12.4,104.18 37.19,147.56 24.79,43.38 59.26,77.27 103.41,101.67 44.15,24.4 94.11,36.6 149.88,36.6 64.02,0 120.52,-17.64 169.5,-52.86 39.22,30.3 86.38,50.76 137.79,57.71 -36.54,40.02 -80.41,71.02 -131.84,92.75 -55.01,23.24 -115.81,34.86 -182.42,34.86 -82.11,0 -156.27,-18.01 -222.5,-54.03 -66.23,-36.02 -118.33,-85.8 -156.27,-149.3 -37.97,-63.53 -56.94,-135.19 -56.94,-214.96 0,-79.78 18.78,-151.44 56.35,-214.94 37.56,-63.528 89.47,-113.3 155.7,-149.3 66.23,-36.02 140.39,-54.031 222.51,-54.031 66.6,0 127.59,11.621 182.99,34.859 54.59,22.91 100.69,56.02 138.35,99.262 -51.8,5.918 -99.51,25.5 -139.36,55.109 -50,-37.801 -107.92,-56.769 -173.86,-56.769"
         fill="#0f315a"
         id="path4" />
      <g
         fill="#b77a09"
         id="g12">
        <path
           d="m 464.9,1231.1 c 81,81.8 173.49,152.06 269.53,216.17 96.613,63.44 197.55,120.45 301.74,170.74 208.02,101.47 427.47,179.16 652.91,233.81 225.46,51.86 459.3,84.87 693.46,57.72 115.77,-14.44 234.82,-45.35 331.85,-117.35 23.81,-18.14 46.01,-38.66 64.66,-62.12 18.95,-23.09 35.18,-48.53 46.52,-75.95 24.69,-54.18 30.82,-113.88 28.17,-170.95 -2.97,28.58 -6.45,57.03 -14.87,84.15 -3.1,13.8 -8.79,26.82 -13.24,40.07 -6.08,12.66 -11.1,25.7 -18.57,37.51 -27.08,48.56 -67.08,88.41 -113.63,117.25 -46.11,29.77 -98.3,49.59 -151.88,63.38 -53.62,13.93 -109.03,22.05 -164.8,26.09 -111.66,7.43 -224.65,2.51 -336.67,-11.56 -112.14,-13.13 -223.63,-34.08 -333.78,-60.78 -110.49,-25.33 -219.46,-57.61 -327.26,-93.27 -107.96,-35.35 -214.01,-76.45 -318.75,-120.74 C 955.84,1520.33 852.95,1471.36 753.3,1416.1 653.28,1361.44 556.62,1300.39 464.9,1231.1"
           id="path6" />
        <path
           d="M 1643.3,1904.2 C 1315.32,1805.81 999.31,1667.39 712.41,1485.86 569.42,1395.37 432.2,1294.21 317.29,1174.48 260.294,1114.64 209.26,1049.68 172.42,980.03 134.736,910.819 115.432,835.76 123.728,766.47 c 4.731,-34.5 17.582,-67.848 33.649,-96.41 18.953,-27.629 42.273,-52.559 71.519,-73.047 58.95,-40.621 134.48,-64.5 212.02,-79.262 156.68,-28.859 324.04,-27.039 489.94,-16.66 166.54,10.238 333.53,34.992 498.71,69.238 164.87,35.801 329.06,78.902 485.23,149.5 l 8,-12.598 c -67.62,-55.421 -144.23,-99.281 -222.41,-138.51 -78.73,-38.34 -159.96,-71.52 -242.92,-99.547 -82.72,-28.973 -167.45,-51.543 -252.86,-71.832 -85.66,-19.149 -172.45,-33.758 -260.08,-44.828 -175.22,-19.602 -355.56,-22.231 -535.35,20.968 -89.106,22.918 -179.81,56.04 -259.58,117.65 -39.727,30.941 -74.485,70.57 -101.07,115.8 -24.18,47.261 -39.102,96.269 -43.543,147.39 -3.1016,50.75 1.8008,101.47 15.773,148.17 14.023,46.481 33.059,90.524 57.144,130.16 47.18,80.24 106.81,148.67 170.75,210.35 128.78,122.81 274.85,220.37 425.46,306.88 151.59,85.14 309.48,157.1 470.81,218.8 80.78,30.55 162.21,59.21 244.77,84.15 82.63,24.71 165.95,46.79 249.88,65.82 l 3.72,-14.45"
           id="path8" />
        <path
           d="m 2854.3,1346.4 c -9.08,8.75 -18.05,16.49 -27.33,23.82 -9.31,7.3 -18.95,14.14 -29.61,20.86 -10.66,6.94 -22.28,13.18 -36.19,21.36 28.36,15.76 64.69,8.21 89.86,-11.56 12.72,-9.92 22.9,-23.09 29.01,-37.82 5.94,-14.76 8.3,-31.06 3.7,-46.66 -11.28,11.56 -20.15,21.29 -29.44,30 z m -55.55,114 c -65.7,0 -119.16,-53.46 -119.16,-119.17 0,-65.71 53.46,-119.17 119.16,-119.17 65.73,0 119.18,53.46 119.18,119.17 0,65.71 -53.45,119.17 -119.18,119.17"
           id="path10" />
      </g>
      <path
         d="m 2880,1363 c -6.11,14.73 -16.29,27.9 -29.01,37.82 -25.17,19.77 -61.5,27.32 -89.86,11.56 13.91,-8.18 25.53,-14.42 36.19,-21.36 10.66,-6.72 20.3,-13.56 29.61,-20.86 9.28,-7.33 18.25,-15.07 27.33,-23.82 9.29,-8.71 18.16,-18.44 29.44,-30 4.6,15.6 2.24,31.9 -3.7,46.66"
         fill="#ffffff"
         id="path14" />
      <path
         d="m 2169.9,797.19 c -11.28,11.547 -20.15,21.289 -29.43,30 -9.09,8.75 -18.05,16.481 -27.34,23.821 -9.31,7.297 -18.95,14.136 -29.61,20.859 -10.65,6.938 -22.27,13.18 -36.19,21.348 28.36,15.769 64.71,8.222 89.87,-11.559 12.73,-9.91 22.89,-23.082 29.01,-37.808 5.93,-14.774 8.3,-31.063 3.69,-46.661 z m -97.7,143.09 c -78.39,0 -142.16,-63.765 -142.16,-142.16 0,-78.399 63.77,-142.17 142.16,-142.17 78.39,0 142.16,63.769 142.16,142.17 0,78.391 -63.77,142.16 -142.16,142.16"
         fill="#b77a09"
         id="path16" />
      <path
         d="m 2137.2,881.66 c -25.16,19.781 -61.51,27.328 -89.87,11.559 13.92,-8.168 25.54,-14.41 36.19,-21.348 10.66,-6.723 20.3,-13.562 29.61,-20.859 9.29,-7.34 18.25,-15.071 27.34,-23.821 9.28,-8.711 18.15,-18.453 29.43,-30 4.61,15.598 2.24,31.887 -3.69,46.661 -6.12,14.726 -16.28,27.898 -29.01,37.808"
         fill="#ffffff"
         id="path18" />
      <g
         fill="#0f315a"
         id="g36">
        <path
           d="m 781.17,152.27 h 53.09 V 63.191 c -15.039,-6.4219 -31.039,-9.6211 -47.989,-9.6211 -20.187,0 -35.73,7.668 -46.613,23.039 -10.89,15.359 -16.336,37.493 -16.336,66.403 0,27.867 6.239,49.687 18.707,65.437 12.481,15.762 29.918,23.641 52.324,23.641 13.852,0 27.086,-3.559 39.668,-10.68 l -10.214,-26.379 c -9.813,5.699 -19,8.559 -27.559,8.559 -12.27,0 -21.988,-5.481 -29.156,-16.449 -7.168,-10.981 -10.746,-25.93 -10.746,-44.852 0,-19.48 2.59,-34.398 7.777,-44.777 5.188,-10.371 12.727,-15.551 22.629,-15.551 5.223,0 10.535,0.668 15.914,2.0196 v 39.79 H 781.17 v 28.5"
           id="path20" />
        <path
           d="m 893.06,151.33 h 8.308 c 7.609,0 13.074,2.152 16.395,6.473 3.324,4.308 4.988,10.75 4.988,19.289 0,8.879 -1.762,15.191 -5.281,18.961 -3.524,3.758 -8.973,5.629 -16.34,5.629 h -8.07 z m 0,-27.797 v -67.59 h -32.305 v 173.66 h 42.277 c 17.903,0 31.106,-4.25 39.613,-12.711 8.508,-8.481 12.766,-21.422 12.766,-38.84 0,-21.93 -7.394,-37.27 -22.207,-45.973 l 33.375,-76.137 h -34.566 l -27.438,67.59 H 893.06"
           id="path22" />
        <path
           d="m 1060.7,55.941 h -78.265 v 173.66 h 78.265 v -27.922 h -45.96 v -41.328 h 42.64 v -28.032 h -42.64 V 84.21 h 45.96 V 55.94"
           id="path24" />
        <path
           d="m 1207.6,55.941 h -39.44 l -53.69,125.79 h -1.54 c 1.98,-9.589 2.97,-19.871 2.97,-30.878 V 55.942 h -29.93 v 173.66 h 39.67 l 53.21,-124.48 h 1.32 c -1.52,8.309 -2.27,18.207 -2.27,29.688 v 94.793 h 29.7 V 55.943"
           id="path26" />
        <path
           d="m 1265.9,143.01 c 0,-19.793 2.5,-34.883 7.48,-45.25 4.99,-10.383 12.31,-15.562 21.98,-15.562 19.48,0 29.22,20.262 29.22,60.813 0,40.539 -9.66,60.808 -28.98,60.808 -9.82,0 -17.23,-5.172 -22.22,-15.5 -4.98,-10.332 -7.48,-25.441 -7.48,-45.308 z m 91.82,0 c 0,-28.742 -5.38,-50.84 -16.16,-66.282 -10.76,-15.441 -26.16,-23.16 -46.2,-23.16 -20.12,0 -35.56,7.6914 -46.33,23.09 -10.76,15.41 -16.15,37.61 -16.15,66.578 0,28.75 5.39,50.782 16.15,66.114 10.77,15.32 26.3,22.988 46.57,22.988 20.03,0 35.4,-7.719 46.08,-23.11 10.7,-15.402 16.04,-37.48 16.04,-66.218"
           id="path28" />
        <path
           d="M 1413.4,132.8 V 84.21 h 16.27 c 6.73,0 11.75,2.0586 15.03,6.1797 3.29,4.1094 4.93,10.488 4.93,19.109 0,15.531 -6.81,23.301 -20.44,23.301 z m 0,26.961 h 14.85 c 6.81,0 11.6,1.808 14.37,5.468 2.78,3.629 4.16,9.059 4.16,16.27 0,7.199 -1.58,12.371 -4.75,15.488 -3.17,3.133 -8.16,4.692 -14.96,4.692 h -13.67 z m -30.4,69.84 h 44.3 c 18.05,0 31.2,-3.512 39.43,-10.524 8.25,-7 12.36,-18.148 12.36,-33.418 0,-10.07 -2.19,-18.48 -6.54,-25.262 -4.35,-6.757 -10.29,-10.867 -17.81,-12.277 v -1.191 c 9.82,-2.461 16.9,-7.039 21.26,-13.77 4.35,-6.738 6.53,-15.699 6.53,-26.851 0,-15.758 -4.21,-28.09 -12.65,-37 -8.43,-8.9102 -19.97,-13.367 -34.62,-13.367 H 1383 v 173.66"
           id="path30" />
        <path
           d="m 1506.3,55.941 v 173.66 h 32.31 V 84.211 h 44.78 v -28.27 h -77.09"
           id="path32" />
        <path
           d="m 1682.3,55.941 h -78.26 v 173.66 h 78.26 v -27.922 h -45.96 v -41.328 h 42.64 v -28.032 h -42.64 V 84.21 h 45.96 V 55.94"
           id="path34" />
      </g>
      <path
         d="m 1801.8,240.3 h 24.58 V 0 h -24.58 v 240.3"
         fill="#b77a09"
         id="path38" />
      <g
         fill="#0f315a"
         id="g56">
        <path
           d="m 2013.2,55.941 -33.03,147.88 h -1.3 c 1.51,-11.398 2.26,-21.851 2.26,-31.351 V 55.94 H 1951.2 V 229.6 h 49.64 l 29.7,-136.47 h 0.95 l 29.45,136.47 h 50.38 V 55.94 h -30.66 v 117.7 c 0,9.757 0.56,19.73 1.66,29.949 h -0.95 l -32.9,-147.65 h -35.27"
           id="path40" />
        <path
           d="m 2169.6,143.01 c 0,-19.793 2.49,-34.883 7.48,-45.25 4.99,-10.383 12.31,-15.562 21.97,-15.562 19.48,0 29.22,20.262 29.22,60.813 0,40.539 -9.66,60.808 -28.99,60.808 -9.81,0 -17.21,-5.172 -22.2,-15.5 -4.99,-10.332 -7.48,-25.441 -7.48,-45.308 z m 91.81,0 c 0,-28.742 -5.38,-50.84 -16.16,-66.282 -10.76,-15.441 -26.16,-23.16 -46.2,-23.16 -20.12,0 -35.56,7.6914 -46.32,23.09 -10.77,15.41 -16.16,37.61 -16.16,66.578 0,28.75 5.39,50.782 16.16,66.114 10.76,15.32 26.29,22.988 46.55,22.988 20.04,0 35.4,-7.719 46.1,-23.11 10.69,-15.402 16.03,-37.48 16.03,-66.218"
           id="path42" />
        <path
           d="m 2364,143.48 c 0,38.809 -10.69,58.2 -32.07,58.2 h -12.95 V 84.21 h 10.45 c 11.8,0 20.51,4.9297 26.13,14.789 5.62,9.859 8.44,24.68 8.44,44.48 z m 33.13,0.961 c 0,-28.671 -5.85,-50.589 -17.52,-65.761 -11.69,-15.16 -28.48,-22.738 -50.42,-22.738 h -42.52 v 173.66 h 46.43 c 20.21,0 35.92,-7.473 47.17,-22.403 11.24,-14.918 16.86,-35.847 16.86,-62.758"
           id="path44" />
        <path
           d="m 2488.6,128.39 -9.27,40.39 c -0.56,2.457 -1.8,8.61 -3.74,18.469 -1.93,9.859 -3.1,16.449 -3.51,19.781 -1.02,-6.812 -2.33,-14.312 -3.9,-22.511 -1.59,-8.2 -5.7,-26.899 -12.36,-56.129 z m 16.03,-72.45 -9.98,43.828 h -45.25 l -9.97,-43.828 h -32.32 l 43,174.37 h 43.83 l 43.13,-174.37 h -32.44"
           id="path46" />
        <path
           d="m 2674,55.941 h -39.44 l -53.69,125.79 h -1.54 c 1.98,-9.589 2.97,-19.871 2.97,-30.878 V 55.942 h -29.93 v 173.66 h 39.67 l 53.21,-124.48 h 1.32 c -1.52,8.309 -2.27,18.207 -2.27,29.688 v 94.793 H 2674 V 55.943"
           id="path48" />
        <path
           d="m 2782.9,55.941 h -78.26 v 173.66 h 78.26 v -27.922 h -45.95 v -41.328 h 42.63 v -28.032 h -42.63 V 84.21 h 45.95 V 55.94"
           id="path50" />
        <path
           d="M 151.05,1579.9 H 0 V 766.57 H 576.3 V 894.38 H 151.04 v 685.52"
           id="path52" />
        <path
           d="m 1086.4,1170.9 c -34.09,-27.89 -84.05,-41.83 -149.88,-41.83 H 759.91 v 323.01 h 176.61 c 65.832,0 115.79,-13.94 149.88,-41.83 34.08,-27.88 51.13,-67.79 51.13,-119.68 0,-51.9 -17.05,-91.78 -51.13,-119.67 z m 41.25,374.13 c -52.28,23.24 -113.68,34.86 -184.16,34.86 H 608.86 V 766.56 h 151.05 v 234.7 h 183.58 c 70.479,0 131.88,11.62 184.16,34.86 52.29,23.23 92.37,56.73 120.26,100.5 27.89,43.76 41.83,95.08 41.83,153.95 0,59.64 -13.94,111.15 -41.83,154.53 -27.89,43.38 -67.97,76.7 -120.26,99.93"
           id="path54" />
      </g>
    </g>
  </g>
</svg>
